<svg xmlns="http://www.w3.org/2000/svg" viewBox="-12.9 -21.9 400 400" width="400" height="400" xmlns:v="https://vecta.io/nano"><style><![CDATA[.B{flood-color:rgba(0,0,0,0.3)}]]></style><defs><filter id="A" x="-500%" y="-500%" width="1000%" height="1000%"><feGaussianBlur in="SourceAlpha"/><feOffset dx="4"/><feComponentTransfer result="A"><feFuncA type="linear" slope="1"/></feComponentTransfer><feFlood class="B"/><feComposite in2="A" operator="in"/><feMerge><feMergeNode/><feMergeNode in="SourceGraphic"/></feMerge></filter><filter id="B" x="-500%" y="-500%" width="1000%" height="1000%"><feGaussianBlur in="SourceAlpha"/><feOffset dx="5" dy="2.75"/><feComponentTransfer result="A"><feFuncA type="linear" slope="1"/></feComponentTransfer><feFlood flood-color="rgba(0,0,0,0.24)"/><feComposite in2="A" operator="in"/><feMerge><feMergeNode/><feMergeNode in="SourceGraphic"/></feMerge></filter><filter id="C" x="-500%" y="-500%" width="1000%" height="1000%"><feOffset/><feGaussianBlur stdDeviation="12"/><feComposite operator="out" in="SourceGraphic"/><feComponentTransfer result="A"><feFuncA type="linear" slope="1"/></feComponentTransfer><feFlood flood-color="rgba(0,0,0,0.7)"/><feComposite operator="in" in2="A"/><feComposite in2="SourceGraphic"/></filter><filter id="D" x="-500%" y="-500%" width="1000%" height="1000%"><feGaussianBlur in="SourceAlpha"/><feOffset dy="2"/><feComponentTransfer result="A"><feFuncA type="linear" slope="1"/></feComponentTransfer><feFlood class="B"/><feComposite in2="A" operator="in"/><feMerge><feMergeNode/><feMergeNode in="SourceGraphic"/></feMerge></filter><filter id="E" x="-500%" y="-500%" width="1000%" height="1000%"><feGaussianBlur in="SourceAlpha"/><feOffset dx="2" dy="1.2"/><feComponentTransfer result="A"><feFuncA type="linear" slope="1"/></feComponentTransfer><feFlood class="B"/><feComposite in2="A" operator="in" result="B"/><feMerge><feMergeNode in="B"/><feMergeNode in="SourceGraphic"/></feMerge></filter></defs><g transform="translate(-1.272 -13.694)" stroke-width="6"><circle cx="188.346" cy="191.803" r="163.999" stroke="#000" fill="#072d51"/><path d="M13.322 237.113c8.762-16.002 62.819-44.546 81.618-54.8" fill="none" stroke-linecap="round" filter="url(#A)" stroke="#1e7b6e"/></g><g transform="translate(-62.925 -71.891)" stroke="#000" stroke-width="6"><path d="M250.001 58.691l164.324 284.618H85.676L250.001 58.691z" fill="#601db2" filter="url(#B)"/><path d="M-250-342.278L-168.885-202h-162.231L-250-342.278z" transform="scale(-1)" fill="#fff" filter="url(#C)" stroke-linejoin="bevel"/></g><g transform="translate(-375.653 147.845)" filter="url(#D)" stroke="#1e7b6e"><g transform="translate(.61 -.873)" fill="none" stroke-linejoin="round" stroke-width="8"><path d="M390.218 73.224c14.824 3.733 76.435-3.425 125.21-17.635 81.757-24.046 95.449-34.343 186.675-96.005"/><path d="M389.899 74.48c14.824 3.733 76.053-2.118 124.828-16.328 81.757-24.046 97.542-34.959 188.768-96.621"/><path d="M390.593 73.288c14.824 3.733 79.085-7.151 127.86-21.361 81.757-24.046 91.262-32.742 182.488-94.404"/><path d="M390.662 73.458c14.824 3.733 79.635-9.629 128.41-23.839 81.757-24.046 88.848-32.5 180.074-94.162"/><path d="M387.448 75.509c14.824 3.733 79.699-.527 128.474-14.737 81.757-24.046 94.927-32.606 188.768-97.144"/><path d="M390.287 73.899c14.824 3.733 82.639-8.022 130.642-24.655 87.51-30.322 83.98-34.043 176.775-95.182"/></g></g><g fill="#434343" transform="matrix(1.169066 0 0 1.207331 46.226204 163.874084)"><path d="M226.706-86.607l8.191 28.465h-16.383l8.192-28.465z" transform="matrix(.579027 .815308 -.815308 .579027 61.353214 -199.73381)" filter="url(#E)"/><ellipse cx="246.439" cy="-49.921" rx="8.298" ry="5.913" transform="matrix(.567129 .823629 -.823629 .567129 58.377217 -222.659847)"/></g></svg>